<svg width="50" height="50" viewBox="0 0 50 50" fill="none" xmlns="http://www.w3.org/2000/svg">
<path d="M37.5646 34.6183L46.4869 43.5406L43.5406 46.4869L34.6183 37.5646C31.4102 40.1313 27.3417 41.6667 22.9167 41.6667C12.5667 41.6667 4.16666 33.2667 4.16666 22.9167C4.16666 12.5667 12.5667 4.16666 22.9167 4.16666C33.2667 4.16666 41.6667 12.5667 41.6667 22.9167C41.6667 27.3417 40.1313 31.4102 37.5646 34.6183ZM33.3848 33.0725C35.9323 30.4471 37.5 26.8658 37.5 22.9167C37.5 14.8594 30.974 8.33332 22.9167 8.33332C14.8594 8.33332 8.33332 14.8594 8.33332 22.9167C8.33332 30.974 14.8594 37.5 22.9167 37.5C26.8658 37.5 30.4471 35.9323 33.0725 33.3848L33.3848 33.0725Z" fill="black"/>
</svg>
